<svg width="161" height="38" viewBox="0 0 161 38" fill="none" xmlns="http://www.w3.org/2000/svg">
<g clip-path="url(#clip0_1480_1097)">
<path d="M69.143 21.2749V26.914L74.9103 21.2749H76.8328L72.0267 25.8246L77.025 32.6172H75.1026L71.0014 26.914L69.079 28.7083V32.6813H67.541V21.2749H69.143Z" fill="white"/>
<path d="M79.0117 24.4149V29.9899C79.0117 30.4385 79.1399 30.8871 79.4603 31.1434C79.7807 31.4638 80.1652 31.592 80.6778 31.592C81.4468 31.592 82.0876 31.3356 82.4721 30.8871C82.8566 30.4385 83.1129 29.7977 83.1129 29.0287V24.3508H84.4586V32.5532H83.177V31.2716C82.6002 32.2969 81.7031 32.7454 80.4856 32.7454C78.6272 32.7454 77.666 31.7842 77.666 29.7977V24.2867H79.0117V24.4149Z" fill="white"/>
<path d="M87.7266 21.2749V32.6172H86.3809V21.2749H87.7266Z" fill="white"/>
<path d="M91.6998 21.9158V24.3508H93.3659V25.5684H91.6998V30.6949C91.6998 30.9512 91.7639 31.1434 91.828 31.2075C91.8921 31.3357 92.1484 31.3357 92.5329 31.3357H93.3018V32.5532H92.2124C91.5076 32.5532 90.9949 32.425 90.7386 32.2328C90.4823 31.9765 90.3541 31.5279 90.3541 30.8871V25.5684H88.9443V24.3508H90.3541V21.9158H91.6998Z" fill="white"/>
<path d="M95.9932 24.4149V29.9899C95.9932 30.4385 96.1213 30.8871 96.4417 31.1434C96.7621 31.4638 97.1466 31.592 97.6593 31.592C98.4282 31.592 99.069 31.3356 99.4535 30.8871C99.838 30.4385 100.094 29.7977 100.094 29.0287V24.3508H101.44V32.5532H100.158V31.2716C99.5817 32.2969 98.6846 32.7454 97.467 32.7454C95.6087 32.7454 94.6475 31.7842 94.6475 29.7977V24.2867H95.9932V24.4149Z" fill="white"/>
<path d="M107.72 24.2227V25.6324C106.695 25.6324 105.926 25.8888 105.477 26.4655C104.965 26.9781 104.772 27.8112 104.772 28.9646V32.6173H103.427V24.4149H104.708V26.1451C105.349 24.8635 106.246 24.2227 107.528 24.2227H107.72Z" fill="white"/>
<path d="M69.6558 9.29175C69.6558 10.8297 70.8092 11.4064 72.1549 11.4064C73.0521 11.4064 74.3978 11.1501 74.3978 9.99664C74.3978 8.7791 72.6676 8.58686 71.0015 8.13829C69.3354 7.68972 67.6052 7.04891 67.6052 4.87016C67.6052 2.56325 69.7839 1.40979 71.8986 1.40979C74.2696 1.40979 76.4484 2.43509 76.4484 5.0624H74.0133C73.9492 3.65262 72.9239 3.33222 71.7705 3.33222C71.0015 3.33222 70.0403 3.65262 70.0403 4.61384C70.0403 5.51097 70.5529 5.57505 73.4366 6.34402C74.2696 6.53627 76.8328 7.04891 76.8328 9.67623C76.8328 11.7909 75.1667 13.3288 72.0909 13.3288C69.5917 13.3288 67.2207 12.1113 67.2207 9.29175H69.6558Z" fill="white"/>
<path d="M80.9983 4.80605H82.6644V6.34399H80.9983V10.4452C80.9983 11.2141 81.1906 11.4064 81.9595 11.4064C82.2158 11.4064 82.4081 11.4064 82.6644 11.3423V13.1366C82.2799 13.2007 81.7673 13.2007 81.3187 13.2007C79.9089 13.2007 78.6914 12.8802 78.6914 11.2141V6.34399H77.3457V4.80605H78.6914V2.37097H80.9342L80.9983 4.80605Z" fill="white"/>
<path d="M83.9462 7.36937C84.0743 5.2547 85.9967 4.61389 87.8551 4.61389C89.5212 4.61389 91.5077 4.99838 91.5077 6.98489V11.2783C91.5077 12.0473 91.5718 12.7522 91.764 13.1367H89.4571C89.393 12.8803 89.3289 12.624 89.3289 12.3677C88.6241 13.1367 87.5347 13.393 86.5735 13.393C85.0355 13.393 83.7539 12.624 83.7539 10.8938C83.7539 9.03548 85.1637 8.58691 86.5735 8.39467C87.9833 8.20242 89.2649 8.26651 89.2649 7.30529C89.2649 6.34408 88.6241 6.15183 87.791 6.15183C86.958 6.15183 86.3812 6.47224 86.3171 7.36937H83.9462ZM89.2008 9.03548C88.8163 9.35588 88.0473 9.35588 87.3424 9.54812C86.6376 9.67629 85.9967 9.93261 85.9967 10.7657C85.9967 11.5987 86.6375 11.791 87.4065 11.791C89.2008 11.791 89.2649 10.3812 89.2649 9.86853L89.2008 9.03548Z" fill="white"/>
<path d="M99.069 12.0473C98.4923 12.9444 97.5951 13.3289 96.5058 13.3289C94.0066 13.3289 92.7891 11.2142 92.7891 8.90728C92.7891 6.60037 94.0066 4.61386 96.4417 4.61386C97.4029 4.61386 98.3641 4.99835 98.8768 5.8314V1.66614H101.12V13.0725H98.9408V12.0473H99.069ZM97.0825 6.34405C95.6086 6.34405 95.096 7.62567 95.096 8.97137C95.096 10.3171 95.6727 11.5987 97.0825 11.5987C98.4923 11.5987 99.0049 10.3171 99.0049 8.90728C99.069 7.62567 98.5563 6.34405 97.0825 6.34405Z" fill="white"/>
<path d="M106.054 4.80605H107.72V6.34399H106.054V10.4452C106.054 11.2141 106.246 11.4064 107.015 11.4064C107.272 11.4064 107.464 11.4064 107.72 11.3423V13.1366C107.336 13.2007 106.823 13.2007 106.374 13.2007C104.965 13.2007 103.747 12.8802 103.747 11.2141V6.34399H102.401V4.80605H103.747V2.37097H105.99V4.80605H106.054Z" fill="white"/>
<path d="M112.334 11.1501L118.485 3.84489H112.782V1.66614H121.754V3.65265L115.602 10.9579H121.882V13.0725H112.27V11.1501H112.334Z" fill="white"/>
<path d="M130.853 13.1366H128.675V11.9832H128.611C128.034 12.9444 127.073 13.3289 126.111 13.3289C123.676 13.3289 123.1 11.9832 123.1 9.93258V4.8061H125.342V9.48401C125.342 10.8297 125.727 11.5346 126.816 11.5346C128.034 11.5346 128.611 10.8297 128.611 9.16361V4.8061H130.853V13.1366ZM124.253 1.66614H126.432V3.52449H124.253V1.66614ZM127.521 1.66614H129.7V3.52449H127.521V1.66614Z" fill="white"/>
<path d="M132.712 4.80613H134.891V6.34408C135.339 5.31878 136.429 4.61389 137.518 4.61389C137.646 4.61389 137.838 4.61389 138.031 4.67797V6.79264C137.838 6.72856 137.518 6.72856 137.198 6.72856C135.531 6.72856 134.955 7.9461 134.955 9.35588V13.0726H132.712V4.80613Z" fill="white"/>
<path d="M141.554 3.52449H139.312V1.66614H141.554V3.52449ZM139.312 4.8061H141.554V13.0725H139.312V4.8061Z" fill="white"/>
<path d="M148.86 7.75386C148.732 6.85673 148.155 6.34408 147.194 6.34408C145.72 6.34408 145.272 7.81794 145.272 9.03548C145.272 10.1889 145.72 11.6628 147.13 11.6628C148.155 11.6628 148.796 11.022 148.924 9.9967H151.103C150.847 12.1754 149.309 13.393 147.13 13.393C144.631 13.393 142.965 11.6628 142.965 9.16364C142.965 6.66449 144.503 4.67798 147.194 4.67798C149.117 4.67798 150.911 5.70327 151.103 7.81794H148.86V7.75386Z" fill="white"/>
<path d="M152.448 1.66614H154.691V5.95956H154.755C155.332 4.99835 156.293 4.61386 157.19 4.61386C159.625 4.61386 160.202 5.95956 160.202 8.01015V13.0725H157.959V8.39464C157.959 7.04894 157.575 6.34405 156.485 6.34405C155.268 6.34405 154.691 7.04894 154.691 8.71504V13.0725H152.448V1.66614Z" fill="white"/>
<path d="M53.1872 24.9916C52.9949 24.9916 52.8027 25.0557 52.6105 25.1197C52.3541 24.2226 52.0978 23.3255 51.9056 22.4283L52.9309 21.0186C53.059 20.8263 54.7892 18.6476 54.7892 16.597C54.7892 13.5852 52.226 13.5211 51.9696 13.5211C51.3288 13.5211 50.3676 13.7774 49.7909 14.5464C49.2142 15.2513 49.086 16.2125 49.3423 17.3659C49.4064 17.5582 49.9831 19.8651 50.6239 22.172L49.5986 23.5177L47.3558 14.9309L52.4823 11.1501C53.8921 10.0607 54.7251 8.33052 54.7251 6.53626C54.7251 3.78078 52.8027 1.40978 50.1754 0.833052V0.256324L49.1501 0V0.640809L46.2024 0.448567H45.2411V2.81956H46.2024C46.4587 2.81956 46.715 3.07589 46.715 3.33221C46.715 3.58853 46.4587 3.84486 46.2024 3.84486L42.9983 3.52445L43.2546 4.54975L46.1383 4.80607H46.2024C47.0354 4.80607 47.6762 4.16526 47.6762 3.33221C47.6762 2.49916 47.0354 1.85835 46.2024 1.85835V1.47386L49.086 1.6661V4.42159C49.086 4.74199 48.9578 4.99831 48.7656 5.19056C48.5734 5.3828 48.253 5.51096 47.9325 5.44688L44.6644 5.25464L44.9207 6.21585C44.0236 6.79258 43.2546 7.56155 42.6779 8.3946L41.3963 5.63912C41.5885 5.31872 41.6526 4.93423 41.6526 4.61383C41.6526 3.33221 40.6273 2.30691 39.3457 2.30691C38.5126 2.30691 37.8078 2.6914 37.4233 3.33221L37.6796 0.640809H17.1096L17.3019 3.39629C16.9174 2.75548 16.1484 2.371 15.3794 2.371C14.0978 2.371 13.0725 3.39629 13.0725 4.67791C13.0725 5.0624 13.1366 5.3828 13.3288 5.7032L12.0472 8.45868C11.4705 7.56155 10.7015 6.85666 9.80438 6.27993L10.0607 5.31872L6.79258 5.51096C6.47218 5.51096 6.21585 5.44688 5.95953 5.25464C5.76728 4.93423 5.7032 4.67791 5.7032 4.3575V1.60202L8.58685 1.40978V1.79427C7.75379 1.79427 7.11298 2.49916 7.11298 3.26813C7.11298 4.10118 7.75379 4.74199 8.58685 4.74199H8.65093L11.5346 4.54975L11.7909 3.52445L8.58685 3.84486C8.33052 3.84486 8.0742 3.58853 8.0742 3.33221C8.0742 3.07589 8.33052 2.81956 8.58685 2.81956H9.54806V0.512648H8.58685L5.7032 0.640809V0L4.67791 0.256324V0.768971C1.98651 1.3457 0.128162 3.7167 0.128162 6.47218C0.128162 8.26644 0.961214 9.99663 2.37099 11.086L7.49747 14.8668L5.25464 23.5177L4.22934 22.172C4.87015 19.9292 5.44688 17.6223 5.51096 17.3659C5.76728 16.2125 5.63912 15.2513 5.06239 14.5464C4.48567 13.7774 3.52445 13.5211 2.88364 13.5211C2.56324 13.5211 0 13.6492 0 16.661C0 18.6476 1.73019 20.8263 1.85835 21.0826L2.88364 22.4283C2.62732 23.3255 2.37099 24.2226 2.17875 25.1197C2.05059 25.0557 1.85835 24.9916 1.6661 24.9916C0.897133 24.9916 0.256324 25.6324 0.256324 26.4014C0.256324 27.1703 0.897133 27.8111 1.6661 27.8111C2.30691 27.8111 2.88364 27.3626 3.0118 26.7858C3.07589 26.4654 3.46037 25.1838 3.84486 23.71L4.87015 25.0556L2.17875 35.1804C2.11467 35.3727 2.11467 35.5008 2.11467 35.6931C2.11467 36.9747 3.13997 38 4.42159 38C5.7032 38 6.7285 36.9747 6.7285 35.6931C6.7285 35.1164 6.53626 34.6037 6.15177 34.1551L8.52277 30.3103L13.2648 36.9747C13.7133 37.6155 14.4182 37.9359 15.1872 37.9359C16.4688 37.9359 17.4941 36.9106 17.4941 35.629C17.4941 34.3474 16.4688 33.3221 15.1872 33.3221H15.059L11.855 24.2226C11.5346 23.3895 10.8297 22.8128 9.93255 22.6847H9.54806L11.7268 17.9427L14.6105 20.0573C14.9949 20.3777 15.5076 20.57 16.0202 20.57C16.1484 20.57 16.2766 20.57 16.4688 20.5059L17.3019 28.9005C17.5582 31.2074 18.7757 33.4503 20.6981 35.1804C22.6847 36.9747 25.0556 37.9359 27.4907 37.9359C29.9258 37.9359 32.3609 36.9747 34.2833 35.1804C36.2057 33.4503 37.4233 31.1433 37.6796 28.9005L38.4486 20.57C38.5767 20.57 38.7049 20.6341 38.8971 20.6341C39.4098 20.6341 39.9224 20.4418 40.3069 20.1214L43.1906 18.0067L45.3693 22.7487H44.9848C44.0877 22.8769 43.3828 23.4536 43.0624 24.2867L39.8583 33.3862H39.7302C38.4486 33.3862 37.4233 34.4115 37.4233 35.6931C37.4233 36.9747 38.4486 38 39.7302 38C40.4992 38 41.204 37.6155 41.6526 37.0388L46.3946 30.3744L48.7656 34.2192C48.2529 34.6037 48.0607 35.1164 48.0607 35.6931C48.0607 36.9747 49.086 38 50.3676 38C51.6492 38 52.6745 36.9747 52.6745 35.6931C52.6745 35.5008 52.6745 35.3727 52.6105 35.1804L49.9831 25.0556L51.0084 23.71C51.3929 25.1838 51.7774 26.4654 51.8415 26.7858C51.9696 27.3626 52.5464 27.8111 53.1872 27.8111C53.9562 27.8111 54.597 27.1703 54.597 26.4014C54.597 25.6324 53.9562 24.9916 53.1872 24.9916ZM3.33221 20.9545L2.88364 20.3137C2.43508 19.7369 1.28162 18.0067 1.28162 16.661C1.28162 14.9949 2.43508 14.8027 2.88364 14.8027C3.26813 14.8027 3.78078 14.9309 4.16526 15.3794C4.48567 15.7639 4.54975 16.4047 4.42159 17.1737C4.29342 17.3019 3.84486 18.9039 3.33221 20.9545ZM39.4739 3.52445C40.1147 3.52445 40.5632 4.0371 40.5632 4.61383C40.5632 4.87015 40.4992 5.06239 40.371 5.25464L40.1787 5.51096L42.1653 9.67622C41.9089 10.3811 41.7167 11.086 41.7167 11.855L38.5126 4.93423C38.4486 4.80607 38.4486 4.67791 38.4486 4.54975C38.3204 4.0371 38.833 3.52445 39.4739 3.52445ZM32.6172 6.60034H29.7976V5.25464H32.6813L32.6172 6.60034ZM28.8364 6.60034H26.0169V5.25464H28.8364V6.60034ZM25.0556 6.60034H22.2361L22.172 5.25464H24.9916L25.0556 6.60034ZM21.2108 6.60034H18.5835L18.4553 5.25464H21.2108V6.60034ZM36.2057 7.62563L36.0776 9.22766H18.7757L18.6476 7.62563H36.2057ZM36.2698 6.60034H33.5784L33.6425 5.25464H36.398L36.2698 6.60034ZM34.7319 1.6661L34.6678 3.39629H35.629L35.6931 1.6661H36.6543L36.4621 4.29342H33.6425L33.7066 1.6661H34.7319ZM30.8229 1.6661L30.7589 3.39629H31.7201L31.7841 1.6661H32.7454L32.6813 4.29342H29.7976L29.8617 1.6661H30.8229ZM26.914 1.6661V3.39629H27.8752V1.6661H28.8364V4.29342H25.9528L25.8887 1.6661H26.914ZM23.0051 1.6661L23.0691 3.39629H24.0304L23.9663 1.6661H24.9916V4.29342H22.1079L22.0438 1.6661H23.0051ZM19.0961 1.6661L19.2243 3.39629H20.1855L20.1214 1.6661H21.0826L21.1467 4.29342H18.3272L18.1349 1.6661H19.0961ZM17.4941 5.57504L17.8786 10.1889H36.9747L37.3592 5.57504L41.5245 14.5464L39.4098 16.0843C39.2816 16.0202 39.0894 16.0202 38.8971 16.0202L39.2816 11.855H15.5717L15.9562 16.0202C15.7639 16.0202 15.5717 16.0202 15.3794 16.0843L13.2648 14.5464L17.4941 5.57504ZM18.199 17.5582H20.6981L22.3002 19.0961H18.199C18.2631 18.8398 18.3272 18.5835 18.3272 18.3272C18.3272 18.0708 18.2631 17.8145 18.199 17.5582ZM17.5582 16.597C17.4941 16.5329 17.3659 16.4047 17.2378 16.3406L17.0455 14.0337L19.6728 16.5329H17.5582V16.597ZM14.6745 5.57504L14.4823 5.31872C14.3541 5.12648 14.29 4.87015 14.29 4.67791C14.29 4.0371 14.8027 3.58853 15.3794 3.58853C16.0202 3.58853 16.4688 4.10118 16.4688 4.67791C16.4688 4.80607 16.4688 4.93423 16.4047 5.0624L13.2007 11.9831C13.1366 11.2142 13.0084 10.5093 12.7521 9.80439L14.6745 5.57504ZM9.7403 23.9663C9.99663 24.0304 10.5093 24.1585 10.7015 24.7352L14.29 34.86L14.8668 34.6678C14.9949 34.6037 15.1231 34.6037 15.1872 34.6037C15.828 34.6037 16.2766 35.1164 16.2766 35.6931C16.2766 36.2698 15.7639 36.7825 15.1872 36.7825C14.8027 36.7825 14.4823 36.5902 14.29 36.3339L9.29174 29.2209L9.61214 28.6442C9.80438 28.2597 9.93255 27.8752 9.93255 27.4907C9.93255 26.4654 9.22766 25.5683 8.26644 25.312L8.77909 24.1585C8.97133 24.0304 9.35582 23.9022 9.7403 23.9663ZM6.85666 25.5042L7.56155 26.4654H7.75379C8.33052 26.4654 8.77909 26.914 8.77909 27.4907C8.77909 27.683 8.71501 27.8752 8.65093 28.0034L4.61383 34.4115L5.12648 34.7319C5.44688 34.9241 5.63912 35.3086 5.63912 35.629C5.63912 36.2698 5.12648 36.7184 4.54975 36.7184C3.97302 36.7184 3.46037 36.2057 3.46037 35.629V35.3727L8.65093 15.5717L10.8297 17.1737L6.85666 25.5042ZM16.0202 19.4165C15.7639 19.4165 15.5076 19.3524 15.3153 19.1602L3.13997 10.1248C1.98651 9.22766 1.3457 7.88196 1.3457 6.47218C1.3457 4.3575 2.75548 2.56324 4.67791 1.98651V4.29342C4.67791 4.87015 4.93423 5.3828 5.31872 5.76729C5.7032 6.21585 6.21585 6.40809 6.7285 6.40809H6.85666L7.75379 6.34401C7.94604 6.40809 8.13828 6.47218 8.20236 6.47218C10.6374 7.43339 12.2395 9.80439 12.2395 12.4317C12.2395 12.8162 12.1754 13.2648 12.1113 13.6492L9.54806 11.7909L9.22766 13.0725L15.1872 17.4941L15.5076 17.3659C15.7639 17.2378 16.0843 17.2378 16.4047 17.3659C16.7892 17.5582 17.1096 17.9427 17.1096 18.3912C17.1096 18.7757 16.9174 19.0961 16.597 19.2884C16.4047 19.3524 16.2125 19.4165 16.0202 19.4165ZM17.5582 20.0573H23.2614L24.8634 21.5953H17.7504L17.5582 20.0573ZM17.8145 22.5565H25.8887L27.4907 24.0944H18.0067L17.8145 22.5565ZM18.0708 25.0556H28.516L30.118 26.5936H18.199L18.0708 25.0556ZM18.4553 28.9005L18.3272 27.6189H31.1433L32.7454 29.1568H18.4553V28.9005ZM18.6476 30.118H33.7066L35.3086 31.656H19.2884C19.032 31.1433 18.8398 30.6307 18.6476 30.118ZM27.4266 36.8465C25.6324 36.8465 23.8381 36.2057 22.3643 35.1804H32.489C31.0152 36.2057 29.2209 36.8465 27.4266 36.8465ZM33.6425 34.1551H21.1467C20.6341 33.7066 20.2496 33.1939 19.8651 32.6172H34.9882C34.6037 33.1939 34.1551 33.7066 33.6425 34.1551ZM36.398 28.9005C36.3339 29.4772 36.2057 30.054 36.0135 30.6307L17.7504 13.0725H37.9359L37.6155 16.3406C36.9747 16.7892 36.5261 17.4941 36.5261 18.3272C36.5261 18.968 36.7825 19.6088 37.231 19.9933L36.398 28.9005ZM39.5379 19.1602C39.3457 19.3524 39.0894 19.4165 38.833 19.4165C38.6408 19.4165 38.3845 19.3524 38.1922 19.2243C37.8718 19.032 37.6796 18.6476 37.6796 18.3272C37.6796 17.8786 37.9359 17.4941 38.3845 17.3019C38.6408 17.1737 38.9612 17.1737 39.2816 17.3019L39.602 17.43L45.5616 13.0084L45.2411 11.7268L42.6779 13.5852C42.6138 13.2007 42.5497 12.8162 42.5497 12.3676C42.5497 9.7403 44.1518 7.43339 46.5868 6.40809C46.6509 6.40809 46.8432 6.34401 47.0354 6.27993L47.9325 6.34401H48.0607C48.5734 6.34401 49.086 6.15177 49.4705 5.76729C49.855 5.3828 50.1113 4.87015 50.1113 4.29342V1.98651C52.0978 2.56324 53.4435 4.3575 53.4435 6.47218C53.4435 7.88196 52.8027 9.22766 51.6492 10.1248L39.5379 19.1602ZM40.5632 36.3339C40.371 36.6543 39.9865 36.7825 39.6661 36.7825C39.0253 36.7825 38.5767 36.2698 38.5767 35.6931C38.5767 35.1164 39.0894 34.6037 39.6661 34.6037C39.7943 34.6037 39.9224 34.6037 39.9865 34.6678L40.5632 34.86L44.1518 24.7352C44.344 24.1585 44.8567 24.0304 45.113 23.9663C45.4975 23.9022 45.882 24.0304 46.0101 24.1585L46.5228 25.312C45.5616 25.5683 44.8567 26.4654 44.8567 27.5548C44.8567 27.9393 44.9848 28.3879 45.1771 28.7083L45.4975 29.285L40.5632 36.3339ZM51.457 35.5008V35.7572C51.457 36.398 50.9443 36.8465 50.3676 36.8465C49.7909 36.8465 49.2782 36.3339 49.2782 35.7572C49.2782 35.3727 49.4705 35.0523 49.7909 34.86L50.3035 34.5396L46.2664 28.1315C46.1383 27.9393 46.1383 27.8111 46.1383 27.6189C46.1383 27.0422 46.5868 26.5936 47.1636 26.5936H47.3558L48.0607 25.6324L44.2159 17.3659L46.3946 15.7639L51.457 35.5008ZM50.4958 17.1096C50.3035 16.2766 50.3676 15.6998 50.7521 15.3153C51.0725 14.9309 51.6492 14.7386 52.0337 14.7386C52.5464 14.7386 53.6357 14.9309 53.6357 16.597C53.6357 18.2631 52.0337 20.1855 52.0337 20.2496L51.5211 20.8904C51.0084 18.9039 50.5599 17.3019 50.4958 17.1096Z" fill="white"/>
</g>
<defs>
<clipPath id="clip0_1480_1097">
<rect width="160.202" height="38" fill="white"/>
</clipPath>
</defs>
</svg>
